<?xml version="1.0" encoding="UTF-8" standalone="no"?>
<!-- Created with Inkscape (http://www.inkscape.org/) -->

<svg
   version="1.1"
   id="svg1"
   width="284.52667"
   height="285.70267"
   viewBox="0 0 284.52667 285.70267"
   sodipodi:docname="DAGind_prior.svg"
   inkscape:version="1.4 (86a8ad7, 2024-10-11)"
   xmlns:inkscape="http://www.inkscape.org/namespaces/inkscape"
   xmlns:sodipodi="http://sodipodi.sourceforge.net/DTD/sodipodi-0.dtd"
   xmlns="http://www.w3.org/2000/svg"
   xmlns:svg="http://www.w3.org/2000/svg">
  <defs
     id="defs1" />
  <sodipodi:namedview
     id="namedview1"
     pagecolor="#ffffff"
     bordercolor="#000000"
     borderopacity="0.25"
     inkscape:showpageshadow="2"
     inkscape:pageopacity="0.0"
     inkscape:pagecheckerboard="0"
     inkscape:deskcolor="#d1d1d1"
     inkscape:zoom="1.9355787"
     inkscape:cx="142.33469"
     inkscape:cy="142.85133"
     inkscape:window-width="1366"
     inkscape:window-height="705"
     inkscape:window-x="-8"
     inkscape:window-y="-8"
     inkscape:window-maximized="1"
     inkscape:current-layer="g1">
    <inkscape:page
       x="0"
       y="0"
       inkscape:label="1"
       id="page1"
       width="284.52667"
       height="285.70267"
       margin="0"
       bleed="0" />
  </sodipodi:namedview>
  <g
     id="g1"
     inkscape:groupmode="layer"
     inkscape:label="1">
    <path
       id="path1"
       d="M 14.17339,0 C 14.17339,7.82784 7.82784,14.17339 0,14.17339 -7.82784,14.17339 -14.17339,7.82784 -14.17339,0 c 0,-7.82784 6.34555,-14.17339 14.17339,-14.17339 7.82784,0 14.17339,6.34555 14.17339,14.17339 z"
       style="fill:#e6e6e6;fill-opacity:1;fill-rule:nonzero;stroke:#000000;stroke-width:0.3985;stroke-linecap:butt;stroke-linejoin:miter;stroke-miterlimit:10;stroke-dasharray:none;stroke-opacity:1"
       transform="matrix(1.3333333,0,0,-1.3333333,75.856,114.18267)" />
    <g
       id="g2"
       aria-label="µ&#10;1,1"
       transform="matrix(1.3333333,0,0,1.3333333,64.649333,115.14133)">
      <path
         id="path2"
         d="m 2.2962031,-3.4927187 c 0.058594,-0.2109375 0.1523438,-0.5976563 0.1523438,-0.6445313 0,-0.1640625 -0.1171875,-0.2695312 -0.2929688,-0.2695312 -0.023437,0 -0.3046875,0.011719 -0.3984375,0.3632812 L 0.32745313,1.722125 c -0.0234375,0.1171875 -0.0234375,0.140625 -0.0234375,0.1640625 0,0.140625 0.10546875,0.2695313 0.26953125,0.2695313 0.2109375,0 0.328125,-0.1875 0.3515625,-0.2109375 0.0351563,-0.09375 0.17578122,-0.609375 0.55078122,-2.1445313 0.3164063,0.26953125 0.7617188,0.3046875 0.9609375,0.3046875 0.703125,0 1.0898438,-0.4453125 1.3242188,-0.7265625 0.09375,0.45703125 0.4570312,0.7265625 0.9023437,0.7265625 0.3515625,0 0.5742188,-0.22265625 0.7382813,-0.5390625 0.1640625,-0.36328125 0.2929687,-0.9726562 0.2929687,-0.9960937 0,-0.09375 -0.082031,-0.09375 -0.1171875,-0.09375 -0.09375,0 -0.1054687,0.035156 -0.140625,0.1757812 -0.1640625,0.64453125 -0.3515625,1.2421875 -0.75,1.2421875 -0.2695312,0 -0.3046875,-0.2578125 -0.3046875,-0.45703125 0,-0.22265625 0.1171875,-0.69140625 0.1992188,-1.04296875 l 0.28125,-1.078125 c 0.023437,-0.140625 0.1289062,-0.5273437 0.1640625,-0.6679687 0.058594,-0.234375 0.1523437,-0.609375 0.1523437,-0.6679688 0,-0.1875 -0.140625,-0.2695312 -0.2929687,-0.2695312 -0.046875,0 -0.3046875,0 -0.3867188,0.3398437 l -0.46875,1.8632813 C 3.9133906,-1.5825625 3.8079219,-1.1606875 3.7727656,-1.0669375 3.7610469,-1.0200625 3.2922969,-0.106 2.4837031,-0.106 c -0.5039062,0 -0.7382812,-0.328125 -0.7382812,-0.8671875 0,-0.2929687 0.070312,-0.5742187 0.140625,-0.8554687 z m 0,0"
         style="fill:#000000;fill-opacity:1;fill-rule:nonzero;stroke:none" />
      <path
         id="path3"
         d="m 8.3342891,-2.9360781 c 0,-0.1875 -0.011719,-0.1992188 -0.2109375,-0.1992188 -0.4453125,0.4335938 -1.078125,0.4453125 -1.359375,0.4453125 v 0.2460938 c 0.1640625,0 0.6210937,0 1.0078125,-0.1875 v 3.55078123 c 0,0.23437497 0,0.32812497 -0.6914063,0.32812497 H 6.8108516 v 0.2460938 c 0.1289062,-0.011719 0.984375,-0.023437 1.2421875,-0.023437 0.2109375,0 1.0898437,0.011719 1.2421875,0.023437 V 1.2475156 H 9.0374141 c -0.703125,0 -0.703125,-0.09375 -0.703125,-0.32812497 z m 0,0"
         style="fill:#000000;fill-opacity:1;fill-rule:nonzero;stroke:none" />
      <path
         id="path4"
         d="m 11.451477,1.3764219 c 0,0.3867187 -0.07031,0.8320312 -0.550782,1.2773437 -0.02344,0.035156 -0.04687,0.058594 -0.04687,0.09375 0,0.046875 0.05859,0.09375 0.09375,0.09375 0.105469,0 0.691407,-0.5625 0.691407,-1.3945312 0,-0.421875 -0.164063,-0.75000002 -0.480469,-0.75000002 -0.234375,0 -0.398438,0.17578125 -0.398438,0.38671872 0,0.234375 0.152344,0.4101563 0.398438,0.4101563 0.164062,0 0.28125,-0.1171875 0.292969,-0.1171875 z m 0,0"
         style="fill:#000000;fill-opacity:1;fill-rule:nonzero;stroke:none" />
      <path
         id="path5"
         d="m 14.674133,-2.9360781 c 0,-0.1875 -0.01172,-0.1992188 -0.210938,-0.1992188 -0.445312,0.4335938 -1.078125,0.4453125 -1.359375,0.4453125 v 0.2460938 c 0.164063,0 0.621094,0 1.007813,-0.1875 v 3.55078123 c 0,0.23437497 0,0.32812497 -0.691406,0.32812497 h -0.269532 v 0.2460938 c 0.128907,-0.011719 0.984375,-0.023437 1.242188,-0.023437 0.210937,0 1.089844,0.011719 1.242187,0.023437 V 1.2475156 h -0.257812 c -0.703125,0 -0.703125,-0.09375 -0.703125,-0.32812497 z m 0,0"
         style="fill:#000000;fill-opacity:1;fill-rule:nonzero;stroke:none" />
    </g>
    <path
       id="path6"
       d="m 113.78574,0 c 0,7.82784 -6.34555,14.17339 -14.1734,14.17339 -7.82786,0 -14.17341,-6.34555 -14.17341,-14.17339 0,-7.82784 6.34555,-14.17339 14.17341,-14.17339 7.82785,0 14.1734,6.34555 14.1734,14.17339 z"
       style="fill:#e6e6e6;fill-opacity:1;fill-rule:nonzero;stroke:#000000;stroke-width:0.3985;stroke-linecap:butt;stroke-linejoin:miter;stroke-miterlimit:10;stroke-dasharray:none;stroke-opacity:1"
       transform="matrix(1.3333333,0,0,-1.3333333,75.856,114.18267)" />
    <g
       id="g6"
       aria-label="µ&#10;2,2"
       transform="matrix(1.3333333,0,0,1.3333333,197.464,115.14133)">
      <path
         id="path7"
         d="m 2.2975078,-3.4927187 c 0.058594,-0.2109375 0.1523438,-0.5976563 0.1523438,-0.6445313 0,-0.1640625 -0.1171875,-0.2695312 -0.2929688,-0.2695312 -0.023437,0 -0.3046875,0.011719 -0.3984375,0.3632812 L 0.32875781,1.722125 c -0.0234375,0.1171875 -0.0234375,0.140625 -0.0234375,0.1640625 0,0.140625 0.10546875,0.2695313 0.26953125,0.2695313 0.2109375,0 0.328125,-0.1875 0.3515625,-0.2109375 0.0351563,-0.09375 0.17578124,-0.609375 0.55078124,-2.1445313 0.3164063,0.26953125 0.7617188,0.3046875 0.9609375,0.3046875 0.703125,0 1.0898438,-0.4453125 1.3242188,-0.7265625 0.09375,0.45703125 0.4570312,0.7265625 0.9023437,0.7265625 0.3515625,0 0.5742188,-0.22265625 0.7382813,-0.5390625 0.1640625,-0.36328125 0.2929687,-0.9726562 0.2929687,-0.9960937 0,-0.09375 -0.082031,-0.09375 -0.1171875,-0.09375 -0.09375,0 -0.1054687,0.035156 -0.140625,0.1757812 -0.1640625,0.64453125 -0.3515625,1.2421875 -0.75,1.2421875 -0.2695312,0 -0.3046875,-0.2578125 -0.3046875,-0.45703125 0,-0.22265625 0.1171875,-0.69140625 0.1992188,-1.04296875 l 0.28125,-1.078125 c 0.023437,-0.140625 0.1289062,-0.5273437 0.1640625,-0.6679687 0.058594,-0.234375 0.1523437,-0.609375 0.1523437,-0.6679688 0,-0.1875 -0.140625,-0.2695312 -0.2929687,-0.2695312 -0.046875,0 -0.3046875,0 -0.3867188,0.3398437 l -0.46875,1.8632813 C 3.9146953,-1.5825625 3.8092266,-1.1606875 3.7740703,-1.0669375 3.7623516,-1.0200625 3.2936016,-0.106 2.4850078,-0.106 c -0.5039062,0 -0.7382812,-0.328125 -0.7382812,-0.8671875 0,-0.2929687 0.070312,-0.5742187 0.140625,-0.8554687 z m 0,0"
         style="fill:#000000;fill-opacity:1;fill-rule:nonzero;stroke:none" />
      <path
         id="path8"
         d="m 9.5191875,0.22798438 h -0.234375 c -0.023437,0.15234375 -0.082031,0.5625 -0.1757813,0.6328125 -0.058594,0.0351563 -0.5976562,0.0351563 -0.6914062,0.0351563 H 7.1285625 c 0.7382812,-0.64453125 0.984375,-0.84375 1.3945312,-1.171875 0.515625,-0.41015625 0.9960938,-0.84374998 0.9960938,-1.49999998 0,-0.8437501 -0.7382813,-1.3593751 -1.6289063,-1.3593751 -0.8671875,0 -1.453125,0.609375 -1.453125,1.2421876 0,0.3632812 0.3046875,0.3984375 0.375,0.3984375 0.1640625,0 0.375,-0.1171875 0.375,-0.375 0,-0.1289062 -0.058594,-0.3632813 -0.421875,-0.3632813 0.2226563,-0.5039063 0.6914063,-0.6562499 1.0195313,-0.6562499 0.703125,0 1.0664062,0.5507811 1.0664062,1.1132812 0,0.609375 -0.4335937,1.08984373 -0.65625,1.33593748 l -1.6875,1.66406252 c -0.070312,0.058594 -0.070312,0.070312 -0.070312,0.2695312 h 2.8828125 z m 0,0"
         style="fill:#000000;fill-opacity:1;fill-rule:nonzero;stroke:none" />
      <path
         id="path9"
         d="m 11.452781,1.3764219 c 0,0.3867187 -0.07031,0.8320312 -0.550781,1.2773437 -0.02344,0.035156 -0.04687,0.058594 -0.04687,0.09375 0,0.046875 0.05859,0.09375 0.09375,0.09375 0.105469,0 0.691406,-0.5625 0.691406,-1.3945312 0,-0.421875 -0.164062,-0.75000002 -0.480469,-0.75000002 -0.234375,0 -0.398437,0.17578125 -0.398437,0.38671872 0,0.234375 0.152344,0.4101563 0.398437,0.4101563 0.164063,0 0.28125,-0.1171875 0.292969,-0.1171875 z m 0,0"
         style="fill:#000000;fill-opacity:1;fill-rule:nonzero;stroke:none" />
      <path
         id="path10"
         d="m 15.856102,0.22798438 h -0.234375 c -0.02344,0.15234375 -0.08203,0.5625 -0.175782,0.6328125 -0.05859,0.0351563 -0.597656,0.0351563 -0.691406,0.0351563 h -1.289062 c 0.738281,-0.64453125 0.984375,-0.84375 1.394531,-1.171875 0.515625,-0.41015625 0.996094,-0.84374998 0.996094,-1.49999998 0,-0.8437501 -0.738282,-1.3593751 -1.628907,-1.3593751 -0.867187,0 -1.453125,0.609375 -1.453125,1.2421876 0,0.3632812 0.304688,0.3984375 0.375,0.3984375 0.164063,0 0.375,-0.1171875 0.375,-0.375 0,-0.1289062 -0.05859,-0.3632813 -0.421875,-0.3632813 0.222657,-0.5039063 0.691407,-0.6562499 1.019532,-0.6562499 0.703125,0 1.066406,0.5507811 1.066406,1.1132812 0,0.609375 -0.433594,1.08984373 -0.65625,1.33593748 l -1.6875,1.66406252 c -0.07031,0.058594 -0.07031,0.070312 -0.07031,0.2695312 h 2.882813 z m 0,0"
         style="fill:#000000;fill-opacity:1;fill-rule:nonzero;stroke:none" />
    </g>
    <path
       id="path11"
       d="M -14.17339,-85.4389 H 14.1734 v 28.34679 h -28.34679 z"
       style="fill:#ffcccc;fill-opacity:1;fill-rule:nonzero;stroke:#000000;stroke-width:0.3985;stroke-linecap:butt;stroke-linejoin:miter;stroke-miterlimit:10;stroke-dasharray:none;stroke-opacity:1"
       transform="matrix(1.3333333,0,0,-1.3333333,75.856,114.18267)" />
    <g
       id="g11"
       aria-label="y&#10;1,1"
       transform="matrix(1.3333333,0,0,1.3333333,65.394667,210.16133)">
      <path
         id="path12"
         d="m 4.8397422,-3.7977578 c 0.046875,-0.140625 0.046875,-0.1523438 0.046875,-0.2226563 0,-0.1875 -0.140625,-0.2695312 -0.2929688,-0.2695312 -0.1054687,0 -0.2578125,0.058594 -0.3515625,0.1992187 -0.023437,0.058594 -0.09375,0.3632813 -0.140625,0.5390625 -0.070312,0.2578125 -0.140625,0.5273438 -0.1992187,0.796875 l -0.4453125,1.79296879 c -0.035156,0.15234375 -0.46875,0.85546875 -1.125,0.85546875 -0.5039063,0 -0.6210938,-0.4453125 -0.6210938,-0.80859375 0,-0.45703129 0.1757813,-1.07812499 0.515625,-1.95703129 0.1523438,-0.4101562 0.1992188,-0.515625 0.1992188,-0.7148437 0,-0.4453125 -0.328125,-0.8203125 -0.8203125,-0.8203125 -0.94921876,0 -1.31250001,1.453125 -1.31250001,1.5351562 0,0.1054688 0.09375,0.1054688 0.1171875,0.1054688 0.09375,0 0.10546875,-0.023437 0.15234375,-0.1875 0.26953125,-0.9375 0.66796876,-1.2304688 1.00781246,-1.2304688 0.082031,0 0.2578125,0 0.2578125,0.3164063 0,0.2460937 -0.1054687,0.515625 -0.1757812,0.703125 -0.3984375,1.0546875 -0.5742188,1.6171875 -0.5742188,2.0859375 0,0.89062499 0.6210938,1.18359374 1.21875,1.18359374 0.3867188,0 0.7265625,-0.1640625 0.9960938,-0.4453125 -0.1289063,0.515625 -0.2460938,1.0078125 -0.6445313,1.53515626 -0.2578125,0.3398437 -0.6328125,0.6328125 -1.0898437,0.6328125 -0.140625,0 -0.59765626,-0.035156 -0.76171876,-0.421875 0.1640625,0 0.29296876,0 0.43359376,-0.1171875 0.09375,-0.09375 0.1992187,-0.2226563 0.1992187,-0.41015626 0,-0.31640625 -0.2695312,-0.3515625 -0.375,-0.3515625 -0.22265621,0 -0.55078121,0.1640625 -0.55078121,0.64453126 0,0.5039062 0.43359375,0.8671875 1.05468751,0.8671875 1.0195312,0 2.0507812,-0.9023438 2.3320312,-2.02734376 z m 0,0"
         style="fill:#000000;fill-opacity:1;fill-rule:nonzero;stroke:none" />
      <path
         id="path13"
         d="m 7.2157188,-2.9364297 c 0,-0.1875 -0.011719,-0.1992187 -0.2109375,-0.1992187 -0.4453125,0.4335937 -1.078125,0.4453125 -1.359375,0.4453125 v 0.2460937 c 0.1640625,0 0.6210937,0 1.0078125,-0.1875 v 3.55078126 c 0,0.23437504 0,0.32812504 -0.6914063,0.32812504 H 5.6922813 v 0.2460937 c 0.1289062,-0.011719 0.984375,-0.023437 1.2421875,-0.023437 0.2109375,0 1.0898437,0.011719 1.2421875,0.023437 V 1.2471641 H 7.9188438 c -0.703125,0 -0.703125,-0.09375 -0.703125,-0.32812504 z m 0,0"
         style="fill:#000000;fill-opacity:1;fill-rule:nonzero;stroke:none" />
      <path
         id="path14"
         d="m 10.332906,1.3760703 c 0,0.3867188 -0.07031,0.8320313 -0.550781,1.2773438 -0.023437,0.035156 -0.046875,0.058594 -0.046875,0.09375 0,0.046875 0.058594,0.09375 0.09375,0.09375 0.1054688,0 0.691406,-0.5625 0.691406,-1.3945313 0,-0.421875 -0.164062,-0.74999999 -0.480468,-0.74999999 -0.2343755,0 -0.398438,0.17578125 -0.398438,0.38671879 0,0.234375 0.1523438,0.4101562 0.398438,0.4101562 0.164062,0 0.28125,-0.1171875 0.292968,-0.1171875 z m 0,0"
         style="fill:#000000;fill-opacity:1;fill-rule:nonzero;stroke:none" />
      <path
         id="path15"
         d="m 13.552633,-2.9364297 c 0,-0.1875 -0.01172,-0.1992187 -0.210938,-0.1992187 -0.445312,0.4335937 -1.078125,0.4453125 -1.359375,0.4453125 v 0.2460937 c 0.164063,0 0.621094,0 1.007813,-0.1875 v 3.55078126 c 0,0.23437504 0,0.32812504 -0.691406,0.32812504 h -0.269532 v 0.2460937 c 0.128907,-0.011719 0.984375,-0.023437 1.242188,-0.023437 0.210937,0 1.089844,0.011719 1.242187,0.023437 V 1.2471641 h -0.257812 c -0.703125,0 -0.703125,-0.09375 -0.703125,-0.32812504 z m 0,0"
         style="fill:#000000;fill-opacity:1;fill-rule:nonzero;stroke:none" />
    </g>
    <path
       id="path16"
       d="m 85.43893,-85.4389 h 28.34679 v 28.34679 H 85.43893 Z"
       style="fill:#ffcccc;fill-opacity:1;fill-rule:nonzero;stroke:#000000;stroke-width:0.3985;stroke-linecap:butt;stroke-linejoin:miter;stroke-miterlimit:10;stroke-dasharray:none;stroke-opacity:1"
       transform="matrix(1.3333333,0,0,-1.3333333,75.856,114.18267)" />
    <g
       id="g16"
       aria-label="y&#10;2,2"
       transform="matrix(1.3333333,0,0,1.3333333,198.21067,210.16133)">
      <path
         id="path17"
         d="m 4.8400469,-3.7977578 c 0.046875,-0.140625 0.046875,-0.1523438 0.046875,-0.2226563 0,-0.1875 -0.140625,-0.2695312 -0.2929688,-0.2695312 -0.1054687,0 -0.2578125,0.058594 -0.3515625,0.1992187 -0.023437,0.058594 -0.09375,0.3632813 -0.140625,0.5390625 -0.070312,0.2578125 -0.140625,0.5273438 -0.1992187,0.796875 l -0.4453125,1.79296879 c -0.035156,0.15234375 -0.46875,0.85546875 -1.125,0.85546875 -0.5039063,0 -0.6210938,-0.4453125 -0.6210938,-0.80859375 0,-0.45703129 0.1757813,-1.07812499 0.515625,-1.95703129 0.1523438,-0.4101562 0.1992188,-0.515625 0.1992188,-0.7148437 0,-0.4453125 -0.328125,-0.8203125 -0.8203125,-0.8203125 -0.94921878,0 -1.31250003,1.453125 -1.31250003,1.5351562 0,0.1054688 0.09375,0.1054688 0.1171875,0.1054688 0.09375,0 0.10546875,-0.023437 0.15234375,-0.1875 0.26953125,-0.9375 0.66796878,-1.2304688 1.00781248,-1.2304688 0.082031,0 0.2578125,0 0.2578125,0.3164063 0,0.2460937 -0.1054687,0.515625 -0.1757812,0.703125 -0.3984375,1.0546875 -0.5742188,1.6171875 -0.5742188,2.0859375 0,0.89062499 0.6210938,1.18359374 1.21875,1.18359374 0.3867188,0 0.7265625,-0.1640625 0.9960938,-0.4453125 -0.1289063,0.515625 -0.2460938,1.0078125 -0.6445313,1.53515626 -0.2578125,0.3398437 -0.6328125,0.6328125 -1.0898437,0.6328125 -0.140625,0 -0.59765628,-0.035156 -0.76171878,-0.421875 0.1640625,0 0.29296878,0 0.43359378,-0.1171875 0.09375,-0.09375 0.1992187,-0.2226563 0.1992187,-0.41015626 0,-0.31640625 -0.2695312,-0.3515625 -0.375,-0.3515625 -0.22265623,0 -0.55078123,0.1640625 -0.55078123,0.64453126 0,0.5039062 0.43359375,0.8671875 1.05468753,0.8671875 1.0195312,0 2.0507812,-0.9023438 2.3320312,-2.02734376 z m 0,0"
         style="fill:#000000;fill-opacity:1;fill-rule:nonzero;stroke:none" />
      <path
         id="path18"
         d="m 8.3996172,0.22763281 h -0.234375 c -0.023437,0.15234375 -0.082031,0.5625 -0.1757813,0.6328125 -0.058594,0.0351563 -0.5976562,0.0351563 -0.6914062,0.0351563 H 6.0089922 c 0.7382812,-0.64453125 0.984375,-0.84375 1.3945312,-1.171875 0.515625,-0.41015625 0.9960938,-0.84374991 0.9960938,-1.49999991 0,-0.8437501 -0.7382813,-1.3593751 -1.6289063,-1.3593751 -0.8671875,0 -1.453125,0.609375 -1.453125,1.2421876 0,0.3632812 0.3046875,0.3984375 0.375,0.3984375 0.1640625,0 0.375,-0.1171875 0.375,-0.375 0,-0.1289063 -0.058594,-0.3632814 -0.421875,-0.3632814 0.2226563,-0.5039062 0.6914063,-0.65625 1.0195313,-0.65625 0.703125,0 1.0664062,0.5507813 1.0664062,1.1132813 0,0.609375 -0.4335937,1.08984376 -0.65625,1.33593751 l -1.6875,1.66406249 c -0.070312,0.058594 -0.070312,0.070312 -0.070312,0.2695312 h 2.8828125 z m 0,0"
         style="fill:#000000;fill-opacity:1;fill-rule:nonzero;stroke:none" />
      <path
         id="path19"
         d="m 10.330281,1.3760703 c 0,0.3867188 -0.07031,0.8320313 -0.550781,1.2773438 -0.023437,0.035156 -0.046875,0.058594 -0.046875,0.09375 0,0.046875 0.058594,0.09375 0.09375,0.09375 0.1054687,0 0.691406,-0.5625 0.691406,-1.3945313 0,-0.421875 -0.164062,-0.74999999 -0.480469,-0.74999999 -0.2343745,0 -0.398437,0.17578125 -0.398437,0.38671879 0,0.234375 0.1523437,0.4101562 0.398437,0.4101562 0.164063,0 0.28125,-0.1171875 0.292969,-0.1171875 z m 0,0"
         style="fill:#000000;fill-opacity:1;fill-rule:nonzero;stroke:none" />
      <path
         id="path20"
         d="m 14.736531,0.22763281 h -0.234375 c -0.02344,0.15234375 -0.08203,0.5625 -0.175781,0.6328125 -0.05859,0.0351563 -0.597656,0.0351563 -0.691406,0.0351563 h -1.289063 c 0.738281,-0.64453125 0.984375,-0.84375 1.394531,-1.171875 0.515625,-0.41015625 0.996094,-0.84374991 0.996094,-1.49999991 0,-0.8437501 -0.738281,-1.3593751 -1.628906,-1.3593751 -0.867188,0 -1.453125,0.609375 -1.453125,1.2421876 0,0.3632812 0.304687,0.3984375 0.375,0.3984375 0.164062,0 0.375,-0.1171875 0.375,-0.375 0,-0.1289063 -0.05859,-0.3632814 -0.421875,-0.3632814 0.222656,-0.5039062 0.691406,-0.65625 1.019531,-0.65625 0.703125,0 1.066406,0.5507813 1.066406,1.1132813 0,0.609375 -0.433593,1.08984376 -0.65625,1.33593751 l -1.6875,1.66406249 C 11.6545,1.2823203 11.6545,1.2940391 11.6545,1.4932578 h 2.882812 z m 0,0"
         style="fill:#000000;fill-opacity:1;fill-rule:nonzero;stroke:none" />
    </g>
    <path
       id="path21"
       d="m 62.84619,-43.00351 c 0,7.82784 -6.34555,14.17339 -14.1734,14.17339 -7.82785,0 -14.1734,-6.34555 -14.1734,-14.17339 0,-7.82785 6.34555,-14.1734 14.1734,-14.1734 7.82785,0 14.1734,6.34555 14.1734,14.1734 z"
       style="fill:#e6e6e6;fill-opacity:1;fill-rule:nonzero;stroke:#000000;stroke-width:0.3985;stroke-linecap:butt;stroke-linejoin:miter;stroke-miterlimit:10;stroke-dasharray:none;stroke-opacity:1"
       transform="matrix(1.3333333,0,0,-1.3333333,75.856,114.18267)" />
    <g
       id="g21"
       aria-label="ˆ&#10;θ"
       transform="matrix(1.3333333,0,0,1.3333333,138.53867,174.38)">
      <path
         id="path22"
         d="m 2.4963906,-6.9148828 -1.3359375,1.359375 0.1757813,0.1757812 1.1601562,-1.0195312 1.1367188,1.0195312 0.1875,-0.1757812 z m 0,0"
         style="fill:#000000;fill-opacity:1;fill-rule:nonzero;stroke:none" />
      <path
         id="path23"
         d="m 3.7180703,-2.3504297 c 0,-0.65625 -0.1875,-2.0390625 -1.1953125,-2.0390625 -1.3828125,0 -2.91796874,2.8007813 -2.91796874,5.08593751 0,0.93749999 0.28125,2.03906249 1.1953125,2.03906249 1.40625004,0 2.91796874,-2.85937499 2.91796874,-5.0859375 z M 0.65947656,-0.99105469 C 0.82353906,-1.6238672 1.0227578,-2.4207422 1.4211953,-3.1238672 c 0.2695313,-0.4921875 0.6445313,-1.0546875 1.0898438,-1.0546875 0.4921875,0 0.5507812,0.6445313 0.5507812,1.2070313 0,0.4921875 -0.082031,0.9960937 -0.328125,1.98046871 z m 1.99218754,0.328125 C 2.5344766,-0.20589844 2.3352578,0.63785156 1.9485391,1.3526953 1.6086953,2.0323828 1.2219766,2.5245703 0.80010156,2.5245703 c -0.328125,0 -0.5390625,-0.2929687 -0.5390625,-1.21875 0,-0.42187499 0.0585938,-0.99609374 0.31640625,-1.96874999 z m 0,0"
         style="fill:#000000;fill-opacity:1;fill-rule:nonzero;stroke:none" />
    </g>
    <path
       id="path24"
       d="m -28.34682,71.26552 c 0,7.82785 -6.34555,14.17338 -14.1734,14.17338 -7.82785,0 -14.1734,-6.34553 -14.1734,-14.17338 0,-7.82785 6.34555,-14.1734 14.1734,-14.1734 7.82785,0 14.1734,6.34555 14.1734,14.1734 z"
       style="fill:#e6e6e6;fill-opacity:1;fill-rule:nonzero;stroke:#000000;stroke-width:0.3985;stroke-linecap:butt;stroke-linejoin:miter;stroke-miterlimit:10;stroke-dasharray:none;stroke-opacity:1"
       transform="matrix(1.3333333,0,0,-1.3333333,75.856,114.18267)" />
    <g
       id="g24"
       aria-label="µ&#10;0,1"
       transform="matrix(1.3333333,0,0,1.3333333,7.9573333,20.122667)">
      <path
         id="path25"
         d="m 2.2966484,-3.4933672 c 0.058594,-0.2109375 0.1523438,-0.5976562 0.1523438,-0.6445312 0,-0.1640625 -0.1171875,-0.2695313 -0.2929688,-0.2695313 -0.023437,0 -0.3046875,0.011719 -0.3984375,0.3632813 l -1.42968746,5.765625 c -0.0234375,0.1171875 -0.0234375,0.140625 -0.0234375,0.1640625 0,0.140625 0.10546875,0.2695312 0.26953125,0.2695312 0.2109375,0 0.328125,-0.1875 0.3515625,-0.2109375 0.0351563,-0.09375 0.17578121,-0.609375 0.55078121,-2.14453124 0.3164063,0.26953125 0.7617188,0.3046875 0.9609375,0.3046875 0.703125,0 1.0898438,-0.4453125 1.3242188,-0.7265625 0.09375,0.45703125 0.4570312,0.7265625 0.9023437,0.7265625 0.3515625,0 0.5742188,-0.22265625 0.7382813,-0.5390625 0.1640625,-0.36328125 0.2929687,-0.97265626 0.2929687,-0.99609376 0,-0.09375 -0.082031,-0.09375 -0.1171875,-0.09375 -0.09375,0 -0.1054687,0.035156 -0.140625,0.1757813 -0.1640625,0.64453121 -0.3515625,1.24218746 -0.75,1.24218746 -0.2695312,0 -0.3046875,-0.2578125 -0.3046875,-0.45703125 0,-0.22265625 0.1171875,-0.69140621 0.1992188,-1.04296871 l 0.28125,-1.078125 c 0.023437,-0.140625 0.1289062,-0.5273438 0.1640625,-0.6679688 0.058594,-0.234375 0.1523437,-0.609375 0.1523437,-0.6679687 0,-0.1875 -0.140625,-0.2695313 -0.2929687,-0.2695313 -0.046875,0 -0.3046875,0 -0.3867188,0.3398438 l -0.46875,1.8632812 c -0.1171875,0.5039063 -0.2226562,0.9257813 -0.2578125,1.0195313 -0.011719,0.046875 -0.4804687,0.96093746 -1.2890625,0.96093746 -0.5039062,0 -0.7382812,-0.328125 -0.7382812,-0.8671875 0,-0.29296876 0.070312,-0.57421876 0.140625,-0.85546876 z m 0,0"
         style="fill:#000000;fill-opacity:1;fill-rule:nonzero;stroke:none" />
      <path
         id="path26"
         d="m 9.6003594,-0.73360156 c 0,-0.76171874 -0.09375,-1.31250004 -0.4101563,-1.80468754 -0.2226562,-0.3164062 -0.6445312,-0.5976562 -1.2070312,-0.5976562 -1.6171875,0 -1.6171875,1.8984375 -1.6171875,2.40234374 0,0.50390625 0,2.36718746 1.6171875,2.36718746 1.6171875,0 1.6171875,-1.86328121 1.6171875,-2.36718746 z M 7.9831719,1.4343672 c -0.3164063,0 -0.75,-0.1875 -0.890625,-0.76171876 -0.09375,-0.41015625 -0.09375,-0.984375 -0.09375,-1.5 0,-0.50390624 0,-1.03125004 0.1054687,-1.41796874 0.1523438,-0.5507813 0.5976563,-0.6914063 0.8789063,-0.6914063 0.375,0 0.7382812,0.2226563 0.8671875,0.6328125 0.1054687,0.375 0.1171875,0.8789063 0.1171875,1.47656254 0,0.515625 0,1.04296875 -0.09375,1.4765625 C 8.7331719,1.2820234 8.2644219,1.4343672 7.9831719,1.4343672 Z m 0,0"
         style="fill:#000000;fill-opacity:1;fill-rule:nonzero;stroke:none" />
      <path
         id="path27"
         d="m 11.451922,1.3757734 c 0,0.3867188 -0.07031,0.8320313 -0.550781,1.2773438 -0.02344,0.035156 -0.04687,0.058594 -0.04687,0.09375 0,0.046875 0.05859,0.09375 0.09375,0.09375 0.105468,0 0.691406,-0.5625 0.691406,-1.3945313 0,-0.421875 -0.164063,-0.74999996 -0.480469,-0.74999996 -0.234375,0 -0.398437,0.17578125 -0.398437,0.38671876 0,0.234375 0.152343,0.4101562 0.398437,0.4101562 0.164063,0 0.28125,-0.1171875 0.292969,-0.1171875 z m 0,0"
         style="fill:#000000;fill-opacity:1;fill-rule:nonzero;stroke:none" />
      <path
         id="path28"
         d="m 14.671648,-2.9367266 c 0,-0.1875 -0.01172,-0.1992187 -0.210937,-0.1992187 -0.445313,0.4335937 -1.078125,0.4453125 -1.359375,0.4453125 v 0.2460937 c 0.164062,0 0.621094,0 1.007812,-0.1875 v 3.55078129 c 0,0.23437501 0,0.32812501 -0.691406,0.32812501 h -0.269531 v 0.2460937 c 0.128906,-0.011719 0.984375,-0.023437 1.242187,-0.023437 0.210938,0 1.089844,0.011719 1.242188,0.023437 V 1.2468672 h -0.257813 c -0.703125,0 -0.703125,-0.09375 -0.703125,-0.32812501 z m 0,0"
         style="fill:#000000;fill-opacity:1;fill-rule:nonzero;stroke:none" />
    </g>
    <path
       id="path29"
       d="M 14.17339,71.26552 C 14.17339,79.09337 7.82784,85.4389 0,85.4389 c -7.82784,0 -14.17339,-6.34553 -14.17339,-14.17338 0,-7.82785 6.34555,-14.1734 14.17339,-14.1734 7.82784,0 14.17339,6.34555 14.17339,14.1734 z"
       style="fill:#e6e6e6;fill-opacity:1;fill-rule:nonzero;stroke:#000000;stroke-width:0.3985;stroke-linecap:butt;stroke-linejoin:miter;stroke-miterlimit:10;stroke-dasharray:none;stroke-opacity:1"
       transform="matrix(1.3333333,0,0,-1.3333333,75.856,114.18267)" />
    <g
       id="g29"
       aria-label="τ&#10;0,1"
       transform="matrix(1.3333333,0,0,1.3333333,65.748,20.122667)">
      <path
         id="path30"
         d="m 2.9282578,-3.7160234 h 1.6757813 c 0.1289062,0 0.4804687,0 0.4804687,-0.3398438 0,-0.234375 -0.1992187,-0.234375 -0.3984375,-0.234375 H 1.8970078 c -0.1992187,0 -0.5859375,0 -1.01953124,0.46875 -0.328125,0.3515625 -0.609375,0.8320313 -0.609375,0.890625 0,0.011719 0,0.1054688 0.1171875,0.1054688 0.0820313,0 0.10546875,-0.046875 0.1640625,-0.1289063 C 1.0298203,-3.7160234 1.6040391,-3.7160234 1.8149766,-3.7160234 h 0.8203125 l -0.9726563,3.19921871 c -0.035156,0.1171875 -0.1054687,0.328125 -0.1054687,0.36328125 0,0.1171875 0.070312,0.26953125 0.2929687,0.26953125 0.328125,0 0.375,-0.28125 0.4101563,-0.421875 z m 0,0"
         style="fill:#000000;fill-opacity:1;fill-rule:nonzero;stroke:none" />
      <path
         id="path31"
         d="m 7.9526719,-0.73360156 c 0,-0.76171874 -0.09375,-1.31250004 -0.4101563,-1.80468754 -0.2226562,-0.3164062 -0.6445312,-0.5976562 -1.2070312,-0.5976562 -1.6171875,0 -1.6171875,1.8984375 -1.6171875,2.40234374 0,0.50390625 0,2.36718746 1.6171875,2.36718746 1.6171875,0 1.6171875,-1.86328121 1.6171875,-2.36718746 z M 6.3354844,1.4343672 c -0.3164063,0 -0.75,-0.1875 -0.890625,-0.76171876 -0.09375,-0.41015625 -0.09375,-0.984375 -0.09375,-1.5 0,-0.50390624 0,-1.03125004 0.1054687,-1.41796874 0.1523438,-0.5507813 0.5976563,-0.6914063 0.8789063,-0.6914063 0.375,0 0.7382812,0.2226563 0.8671875,0.6328125 0.1054687,0.375 0.1171875,0.8789063 0.1171875,1.47656254 0,0.515625 0,1.04296875 -0.09375,1.4765625 C 7.0854844,1.2820234 6.6167344,1.4343672 6.3354844,1.4343672 Z m 0,0"
         style="fill:#000000;fill-opacity:1;fill-rule:nonzero;stroke:none" />
      <path
         id="path32"
         d="m 9.8042344,1.3757734 c 0,0.3867188 -0.070312,0.8320313 -0.5507813,1.2773438 -0.023437,0.035156 -0.046875,0.058594 -0.046875,0.09375 0,0.046875 0.058594,0.09375 0.09375,0.09375 0.1054688,0 0.6914063,-0.5625 0.6914063,-1.3945313 0,-0.421875 -0.1640625,-0.74999996 -0.4804688,-0.74999996 -0.234375,0 -0.3984375,0.17578125 -0.3984375,0.38671876 0,0.234375 0.1523438,0.4101562 0.3984375,0.4101562 0.1640625,0 0.28125,-0.1171875 0.2929688,-0.1171875 z m 0,0"
         style="fill:#000000;fill-opacity:1;fill-rule:nonzero;stroke:none" />
      <path
         id="path33"
         d="m 13.023961,-2.9367266 c 0,-0.1875 -0.01172,-0.1992187 -0.210938,-0.1992187 -0.445312,0.4335937 -1.078125,0.4453125 -1.359375,0.4453125 v 0.2460937 c 0.164063,0 0.621094,0 1.007813,-0.1875 v 3.55078129 c 0,0.23437501 0,0.32812501 -0.691406,0.32812501 h -0.269532 v 0.2460937 c 0.128907,-0.011719 0.984375,-0.023437 1.242188,-0.023437 0.210937,0 1.089844,0.011719 1.242187,0.023437 V 1.2468672 h -0.257812 c -0.703125,0 -0.703125,-0.09375 -0.703125,-0.32812501 z m 0,0"
         style="fill:#000000;fill-opacity:1;fill-rule:nonzero;stroke:none" />
    </g>
    <path
       id="path34"
       d="m 113.78574,71.26552 c 0,7.82785 -6.34555,14.17338 -14.1734,14.17338 -7.82786,0 -14.17341,-6.34553 -14.17341,-14.17338 0,-7.82785 6.34555,-14.1734 14.17341,-14.1734 7.82785,0 14.1734,6.34555 14.1734,14.1734 z"
       style="fill:#e6e6e6;fill-opacity:1;fill-rule:nonzero;stroke:#000000;stroke-width:0.3985;stroke-linecap:butt;stroke-linejoin:miter;stroke-miterlimit:10;stroke-dasharray:none;stroke-opacity:1"
       transform="matrix(1.3333333,0,0,-1.3333333,75.856,114.18267)" />
    <g
       id="g34"
       aria-label="τ&#10;0,2"
       transform="matrix(1.3333333,0,0,1.3333333,198.56267,20.122667)">
      <path
         id="path35"
         d="m 2.9295625,-3.7160234 h 1.6757813 c 0.1289062,0 0.4804687,0 0.4804687,-0.3398438 0,-0.234375 -0.1992187,-0.234375 -0.3984375,-0.234375 H 1.8983125 c -0.1992187,0 -0.5859375,0 -1.01953125,0.46875 -0.328125,0.3515625 -0.609375,0.8320313 -0.609375,0.890625 0,0.011719 0,0.1054688 0.1171875,0.1054688 0.0820313,0 0.10546875,-0.046875 0.1640625,-0.1289063 C 1.031125,-3.7160234 1.6053438,-3.7160234 1.8162813,-3.7160234 h 0.8203125 l -0.9726563,3.19921871 c -0.035156,0.1171875 -0.1054687,0.328125 -0.1054687,0.36328125 0,0.1171875 0.070312,0.26953125 0.2929687,0.26953125 0.328125,0 0.375,-0.28125 0.4101563,-0.421875 z m 0,0"
         style="fill:#000000;fill-opacity:1;fill-rule:nonzero;stroke:none" />
      <path
         id="path36"
         d="m 7.9539766,-0.73360156 c 0,-0.76171874 -0.09375,-1.31250004 -0.4101563,-1.80468754 -0.2226562,-0.3164062 -0.6445312,-0.5976562 -1.2070312,-0.5976562 -1.6171875,0 -1.6171875,1.8984375 -1.6171875,2.40234374 0,0.50390625 0,2.36718746 1.6171875,2.36718746 1.6171875,0 1.6171875,-1.86328121 1.6171875,-2.36718746 z M 6.3367891,1.4343672 c -0.3164063,0 -0.75,-0.1875 -0.890625,-0.76171876 -0.09375,-0.41015625 -0.09375,-0.984375 -0.09375,-1.5 0,-0.50390624 0,-1.03125004 0.1054687,-1.41796874 0.1523438,-0.5507813 0.5976563,-0.6914063 0.8789063,-0.6914063 0.375,0 0.7382812,0.2226563 0.8671875,0.6328125 0.1054687,0.375 0.1171875,0.8789063 0.1171875,1.47656254 0,0.515625 0,1.04296875 -0.09375,1.4765625 C 7.0867891,1.2820234 6.6180391,1.4343672 6.3367891,1.4343672 Z m 0,0"
         style="fill:#000000;fill-opacity:1;fill-rule:nonzero;stroke:none" />
      <path
         id="path37"
         d="m 9.8026094,1.3757734 c 0,0.3867188 -0.070312,0.8320313 -0.5507813,1.2773438 -0.023437,0.035156 -0.046875,0.058594 -0.046875,0.09375 0,0.046875 0.058594,0.09375 0.09375,0.09375 0.1054688,0 0.6914063,-0.5625 0.6914063,-1.3945313 0,-0.421875 -0.1640625,-0.74999996 -0.4804688,-0.74999996 -0.234375,0 -0.3984375,0.17578125 -0.3984375,0.38671876 0,0.234375 0.1523438,0.4101562 0.3984375,0.4101562 0.1640625,0 0.28125,-0.1171875 0.2929688,-0.1171875 z m 0,0"
         style="fill:#000000;fill-opacity:1;fill-rule:nonzero;stroke:none" />
      <path
         id="path38"
         d="m 14.208859,0.22733594 h -0.234375 c -0.02344,0.15234375 -0.08203,0.5625 -0.175781,0.6328125 -0.05859,0.0351563 -0.597656,0.0351563 -0.691406,0.0351563 h -1.289063 c 0.738282,-0.64453125 0.984375,-0.84375 1.394532,-1.171875 0.515625,-0.41015625 0.996093,-0.84374994 0.996093,-1.49999994 0,-0.84375 -0.738281,-1.359375 -1.628906,-1.359375 -0.867187,0 -1.453125,0.609375 -1.453125,1.2421875 0,0.3632812 0.304688,0.3984375 0.375,0.3984375 0.164063,0 0.375,-0.1171875 0.375,-0.375 0,-0.1289063 -0.05859,-0.3632814 -0.421875,-0.3632814 0.222656,-0.5039061 0.691406,-0.65625 1.019531,-0.65625 0.703125,0 1.066407,0.5507814 1.066407,1.1132814 0,0.609375 -0.433594,1.08984369 -0.65625,1.33593744 l -1.6875,1.66406246 c -0.07031,0.058594 -0.07031,0.070312 -0.07031,0.2695313 h 2.882813 z m 0,0"
         style="fill:#000000;fill-opacity:1;fill-rule:nonzero;stroke:none" />
    </g>
    <path
       id="path39"
       d="m 156.30595,71.26552 c 0,7.82785 -6.34555,14.17338 -14.17338,14.17338 -7.82785,0 -14.1734,-6.34553 -14.1734,-14.17338 0,-7.82785 6.34555,-14.1734 14.1734,-14.1734 7.82783,0 14.17338,6.34555 14.17338,14.1734 z"
       style="fill:#e6e6e6;fill-opacity:1;fill-rule:nonzero;stroke:#000000;stroke-width:0.3985;stroke-linecap:butt;stroke-linejoin:miter;stroke-miterlimit:10;stroke-dasharray:none;stroke-opacity:1"
       transform="matrix(1.3333333,0,0,-1.3333333,75.856,114.18267)" />
    <g
       id="g39"
       aria-label="µ&#10;0,2"
       transform="matrix(1.3333333,0,0,1.3333333,254.15733,20.122667)">
      <path
         id="path40"
         d="m 2.2960625,-3.4933672 c 0.058594,-0.2109375 0.1523438,-0.5976562 0.1523438,-0.6445312 0,-0.1640625 -0.1171875,-0.2695313 -0.2929688,-0.2695313 -0.023437,0 -0.3046875,0.011719 -0.3984375,0.3632813 L 0.3273125,1.7214766 C 0.303875,1.8386641 0.303875,1.8621016 0.303875,1.8855391 c 0,0.140625 0.10546875,0.2695312 0.26953125,0.2695312 0.2109375,0 0.328125,-0.1875 0.3515625,-0.2109375 C 0.960125,1.8503828 1.10075,1.3347578 1.47575,-0.20039844 c 0.3164063,0.26953125 0.7617188,0.3046875 0.9609375,0.3046875 0.703125,0 1.0898438,-0.4453125 1.3242188,-0.7265625 0.09375,0.45703125 0.4570312,0.7265625 0.9023437,0.7265625 0.3515625,0 0.5742188,-0.22265625 0.7382813,-0.5390625 C 5.5655938,-0.79805469 5.6945,-1.4074297 5.6945,-1.4308672 c 0,-0.09375 -0.082031,-0.09375 -0.1171875,-0.09375 -0.09375,0 -0.1054687,0.035156 -0.140625,0.1757813 -0.1640625,0.64453121 -0.3515625,1.24218746 -0.75,1.24218746 -0.2695312,0 -0.3046875,-0.2578125 -0.3046875,-0.45703125 0,-0.22265625 0.1171875,-0.69140621 0.1992188,-1.04296871 l 0.28125,-1.078125 c 0.023437,-0.140625 0.1289062,-0.5273438 0.1640625,-0.6679688 0.058594,-0.234375 0.1523437,-0.609375 0.1523437,-0.6679687 0,-0.1875 -0.140625,-0.2695313 -0.2929687,-0.2695313 -0.046875,0 -0.3046875,0 -0.3867188,0.3398438 l -0.46875,1.8632812 C 3.91325,-1.5832109 3.8077813,-1.1613359 3.772625,-1.0675859 c -0.011719,0.046875 -0.4804687,0.96093746 -1.2890625,0.96093746 -0.5039062,0 -0.7382812,-0.328125 -0.7382812,-0.8671875 0,-0.29296876 0.070312,-0.57421876 0.140625,-0.85546876 z m 0,0"
         style="fill:#000000;fill-opacity:1;fill-rule:nonzero;stroke:none" />
      <path
         id="path41"
         d="m 9.5997734,-0.73360156 c 0,-0.76171874 -0.09375,-1.31250004 -0.4101562,-1.80468754 -0.2226563,-0.3164062 -0.6445313,-0.5976562 -1.2070313,-0.5976562 -1.6171875,0 -1.6171875,1.8984375 -1.6171875,2.40234374 0,0.50390625 0,2.36718746 1.6171875,2.36718746 1.6171875,0 1.6171875,-1.86328121 1.6171875,-2.36718746 z M 7.9825859,1.4343672 c -0.3164062,0 -0.75,-0.1875 -0.890625,-0.76171876 -0.09375,-0.41015625 -0.09375,-0.984375 -0.09375,-1.5 0,-0.50390624 0,-1.03125004 0.1054688,-1.41796874 0.1523437,-0.5507813 0.5976562,-0.6914063 0.8789062,-0.6914063 0.375,0 0.7382813,0.2226563 0.8671875,0.6328125 0.1054688,0.375 0.1171875,0.8789063 0.1171875,1.47656254 0,0.515625 0,1.04296875 -0.09375,1.4765625 C 8.7325859,1.2820234 8.2638359,1.4343672 7.9825859,1.4343672 Z m 0,0"
         style="fill:#000000;fill-opacity:1;fill-rule:nonzero;stroke:none" />
      <path
         id="path42"
         d="m 11.451336,1.3757734 c 0,0.3867188 -0.07031,0.8320313 -0.550781,1.2773438 -0.02344,0.035156 -0.04687,0.058594 -0.04687,0.09375 0,0.046875 0.05859,0.09375 0.09375,0.09375 0.105468,0 0.691406,-0.5625 0.691406,-1.3945313 0,-0.421875 -0.164063,-0.74999996 -0.480469,-0.74999996 -0.234375,0 -0.398437,0.17578125 -0.398437,0.38671876 0,0.234375 0.152343,0.4101562 0.398437,0.4101562 0.164063,0 0.28125,-0.1171875 0.292969,-0.1171875 z m 0,0"
         style="fill:#000000;fill-opacity:1;fill-rule:nonzero;stroke:none" />
      <path
         id="path43"
         d="m 15.854656,0.22733594 h -0.234375 c -0.02344,0.15234375 -0.08203,0.5625 -0.175781,0.6328125 -0.05859,0.0351563 -0.597656,0.0351563 -0.691406,0.0351563 h -1.289063 c 0.738282,-0.64453125 0.984375,-0.84375 1.394532,-1.171875 0.515625,-0.41015625 0.996093,-0.84374994 0.996093,-1.49999994 0,-0.84375 -0.738281,-1.359375 -1.628906,-1.359375 -0.867187,0 -1.453125,0.609375 -1.453125,1.2421875 0,0.3632812 0.304688,0.3984375 0.375,0.3984375 0.164063,0 0.375,-0.1171875 0.375,-0.375 0,-0.1289063 -0.05859,-0.3632814 -0.421875,-0.3632814 0.222656,-0.5039061 0.691406,-0.65625 1.019531,-0.65625 0.703125,0 1.066407,0.5507814 1.066407,1.1132814 0,0.609375 -0.433594,1.08984369 -0.65625,1.33593744 l -1.6875,1.66406246 c -0.07031,0.058594 -0.07031,0.070312 -0.07031,0.2695313 h 2.882813 z m 0,0"
         style="fill:#000000;fill-opacity:1;fill-rule:nonzero;stroke:none" />
    </g>
    <path
       id="path44"
       d="m 62.84619,-114.26904 c 0,7.82784 -6.34555,14.1734 -14.1734,14.1734 -7.82785,0 -14.1734,-6.34556 -14.1734,-14.1734 0,-7.82786 6.34555,-14.17339 14.1734,-14.17339 7.82785,0 14.1734,6.34553 14.1734,14.17339 z"
       style="fill:#e6e6e6;fill-opacity:1;fill-rule:nonzero;stroke:#000000;stroke-width:0.3985;stroke-linecap:butt;stroke-linejoin:miter;stroke-miterlimit:10;stroke-dasharray:none;stroke-opacity:1"
       transform="matrix(1.3333333,0,0,-1.3333333,75.856,114.18267)" />
    <path
       id="path45"
       d="m 2.9299297,-3.7150156 h 1.6757812 c 0.1289063,0 0.4804688,0 0.4804688,-0.3398438 0,-0.234375 -0.1992188,-0.234375 -0.3984375,-0.234375 H 1.8986797 c -0.1992188,0 -0.5859375,0 -1.01953126,0.46875 -0.328125,0.3515625 -0.609375,0.8320313 -0.609375,0.890625 0,0.011719 0,0.1054688 0.1171875,0.1054688 0.0820313,0 0.10546875,-0.046875 0.1640625,-0.1289063 C 1.0314922,-3.7150156 1.6057109,-3.7150156 1.8166484,-3.7150156 h 0.8203125 l -0.9726562,3.19921873 c -0.035156,0.1171875 -0.1054688,0.328125 -0.1054688,0.36328125 0,0.1171875 0.070312,0.26953125 0.2929688,0.26953125 0.328125,0 0.375,-0.28125 0.4101562,-0.421875 z m 0,0"
       style="fill:#000000;fill-opacity:1;fill-rule:nonzero;stroke:none"
       aria-label="τ"
       transform="matrix(1.3333333,0,0,1.3333333,137.09733,269.39867)" />
    <path
       id="path46"
       d="M -35.15625,58.92345 -7.59874,12.73558"
       style="fill:none;stroke:#000000;stroke-width:0.3985;stroke-linecap:butt;stroke-linejoin:miter;stroke-miterlimit:10;stroke-dasharray:none;stroke-opacity:1"
       transform="matrix(1.3333333,0,0,-1.3333333,75.856,114.18267)" />
    <path
       id="path47"
       d="M -1.19551,1.59401 C -1.09587,0.99626 0,0.09961 0.29886,0 0,-0.09961 -1.09587,-0.99626 -1.19551,-1.59401"
       style="fill:none;stroke:#000000;stroke-width:0.31879;stroke-linecap:round;stroke-linejoin:round;stroke-miterlimit:10;stroke-dasharray:none;stroke-opacity:1"
       transform="matrix(0.68314667,1.1449733,1.1449733,-0.68314667,65.724333,97.201893)" />
    <path
       id="path48"
       d="M 0,56.89287 V 14.83092"
       style="fill:none;stroke:#000000;stroke-width:0.3985;stroke-linecap:butt;stroke-linejoin:miter;stroke-miterlimit:10;stroke-dasharray:none;stroke-opacity:1"
       transform="matrix(1.3333333,0,0,-1.3333333,75.856,114.18267)" />
    <path
       id="path49"
       d="M -1.19551,1.59401 C -1.09587,0.99626 0,0.09961 0.29886,0 0,-0.09961 -1.09587,-0.99626 -1.19551,-1.59401"
       style="fill:none;stroke:#000000;stroke-width:0.31879;stroke-linecap:round;stroke-linejoin:round;stroke-miterlimit:10;stroke-dasharray:none;stroke-opacity:1"
       transform="matrix(0,1.3333333,1.3333333,0,75.856,94.408107)" />
    <path
       id="path50"
       d="M 134.7686,58.92345 107.21109,12.73558"
       style="fill:none;stroke:#000000;stroke-width:0.3985;stroke-linecap:butt;stroke-linejoin:miter;stroke-miterlimit:10;stroke-dasharray:none;stroke-opacity:1"
       transform="matrix(1.3333333,0,0,-1.3333333,75.856,114.18267)" />
    <path
       id="path51"
       d="M -1.19551,1.59401 C -1.09587,0.99626 0,0.09961 0.29886,0 0,-0.09961 -1.09587,-0.99626 -1.19551,-1.59401"
       style="fill:none;stroke:#000000;stroke-width:0.31879;stroke-linecap:round;stroke-linejoin:round;stroke-miterlimit:10;stroke-dasharray:none;stroke-opacity:1"
       transform="matrix(-0.68314667,1.1449733,1.1449733,0.68314667,218.80413,97.201893)" />
    <path
       id="path52"
       d="M 99.61234,56.89287 V 14.83092"
       style="fill:none;stroke:#000000;stroke-width:0.3985;stroke-linecap:butt;stroke-linejoin:miter;stroke-miterlimit:10;stroke-dasharray:none;stroke-opacity:1"
       transform="matrix(1.3333333,0,0,-1.3333333,75.856,114.18267)" />
    <path
       id="path53"
       d="M -1.19551,1.59401 C -1.09587,0.99626 0,0.09961 0.29886,0 0,-0.09961 -1.09587,-0.99626 -1.19551,-1.59401"
       style="fill:none;stroke:#000000;stroke-width:0.31879;stroke-linecap:round;stroke-linejoin:round;stroke-miterlimit:10;stroke-dasharray:none;stroke-opacity:1"
       transform="matrix(0,1.3333333,1.3333333,0,208.67245,94.408107)" />
    <path
       id="path54"
       d="m 0,-56.89287 v 42.06195"
       style="fill:none;stroke:#000000;stroke-width:0.3985;stroke-linecap:butt;stroke-linejoin:miter;stroke-miterlimit:10;stroke-dasharray:none;stroke-opacity:1"
       transform="matrix(1.3333333,0,0,-1.3333333,75.856,114.18267)" />
    <path
       id="path55"
       d="M -1.19551,1.59401 C -1.09587,0.99626 0,0.09961 0.29886,0 0,-0.09961 -1.09587,-0.99626 -1.19551,-1.59401"
       style="fill:none;stroke:#000000;stroke-width:0.31879;stroke-linecap:round;stroke-linejoin:round;stroke-miterlimit:10;stroke-dasharray:none;stroke-opacity:1"
       transform="matrix(0,-1.3333333,-1.3333333,0,75.856,133.95723)" />
    <path
       id="path56"
       d="m 99.61234,-56.89287 v 42.06195"
       style="fill:none;stroke:#000000;stroke-width:0.3985;stroke-linecap:butt;stroke-linejoin:miter;stroke-miterlimit:10;stroke-dasharray:none;stroke-opacity:1"
       transform="matrix(1.3333333,0,0,-1.3333333,75.856,114.18267)" />
    <path
       id="path57"
       d="M -1.19551,1.59401 C -1.09587,0.99626 0,0.09961 0.29886,0 0,-0.09961 -1.09587,-0.99626 -1.19551,-1.59401"
       style="fill:none;stroke:#000000;stroke-width:0.31879;stroke-linecap:round;stroke-linejoin:round;stroke-miterlimit:10;stroke-dasharray:none;stroke-opacity:1"
       transform="matrix(0,-1.3333333,-1.3333333,0,208.67245,133.95723)" />
    <path
       id="path58"
       d="M 10.77026,-9.51581 37.55911,-33.1843"
       style="fill:none;stroke:#000000;stroke-width:0.3985;stroke-linecap:butt;stroke-linejoin:miter;stroke-miterlimit:10;stroke-dasharray:none;stroke-opacity:1"
       transform="matrix(1.3333333,0,0,-1.3333333,75.856,114.18267)" />
    <path
       id="path59"
       d="M -1.19551,1.59401 C -1.09587,0.99626 0,0.09961 0.29886,0 0,-0.09961 -1.09587,-0.99626 -1.19551,-1.59401"
       style="fill:none;stroke:#000000;stroke-width:0.31879;stroke-linecap:round;stroke-linejoin:round;stroke-miterlimit:10;stroke-dasharray:none;stroke-opacity:1"
       transform="matrix(0.99916,0.88274667,0.88274667,-0.99916,125.93481,158.4284)" />
    <path
       id="path60"
       d="M 88.63043,-9.27106 60.00487,-33.43684"
       style="fill:none;stroke:#000000;stroke-width:0.3985;stroke-linecap:butt;stroke-linejoin:miter;stroke-miterlimit:10;stroke-dasharray:none;stroke-opacity:1"
       transform="matrix(1.3333333,0,0,-1.3333333,75.856,114.18267)" />
    <path
       id="path61"
       d="M -1.19551,1.59401 C -1.09587,0.99626 0,0.09961 0.29886,0 0,-0.09961 -1.09587,-0.99626 -1.19551,-1.59401"
       style="fill:none;stroke:#000000;stroke-width:0.31879;stroke-linecap:round;stroke-linejoin:round;stroke-miterlimit:10;stroke-dasharray:none;stroke-opacity:1"
       transform="matrix(-1.0187733,0.86006667,0.86006667,1.0187733,155.86249,158.76512)" />
    <path
       id="path62"
       d="M 37.90318,-104.75233 14.71602,-84.26321"
       style="fill:none;stroke:#000000;stroke-width:0.3985;stroke-linecap:butt;stroke-linejoin:miter;stroke-miterlimit:10;stroke-dasharray:none;stroke-opacity:1"
       transform="matrix(1.3333333,0,0,-1.3333333,75.856,114.18267)" />
    <path
       id="path63"
       d="M -1.19551,1.59401 C -1.09587,0.99626 0,0.09961 0.29886,0 0,-0.09961 -1.09587,-0.99626 -1.19551,-1.59401"
       style="fill:none;stroke:#000000;stroke-width:0.31879;stroke-linecap:round;stroke-linejoin:round;stroke-miterlimit:10;stroke-dasharray:none;stroke-opacity:1"
       transform="matrix(-0.99908,-0.88285333,-0.88285333,0.99908,95.477373,226.53364)" />
    <path
       id="path64"
       d="M 59.6536,-104.99687 84.88957,-83.6874"
       style="fill:none;stroke:#000000;stroke-width:0.3985;stroke-linecap:butt;stroke-linejoin:miter;stroke-miterlimit:10;stroke-dasharray:none;stroke-opacity:1"
       transform="matrix(1.3333333,0,0,-1.3333333,75.856,114.18267)" />
    <path
       id="path65"
       d="M -1.19551,1.59401 C -1.09587,0.99626 0,0.09961 0.29886,0 0,-0.09961 -1.09587,-0.99626 -1.19551,-1.59401"
       style="fill:none;stroke:#000000;stroke-width:0.31879;stroke-linecap:round;stroke-linejoin:round;stroke-miterlimit:10;stroke-dasharray:none;stroke-opacity:1"
       transform="matrix(1.0186667,-0.86017333,-0.86017333,-1.0186667,189.04208,225.76588)" />
    <path
       id="path66"
       d="M -22.87677,-94.14229 H 122.48911 V 22.87675 H -22.87677 Z"
       style="fill:none;stroke:#000000;stroke-width:0.3985;stroke-linecap:butt;stroke-linejoin:miter;stroke-miterlimit:10;stroke-dasharray:2.98883, 2.98883;stroke-dashoffset:0;stroke-opacity:1"
       transform="matrix(1.3333333,0,0,-1.3333333,75.856,114.18267)" />
  </g>
</svg>
